#tb 0: 1/15
#tb 1: 1/22050
0,          0,          0,        1,   102144, 0x6edc83de
1,          0,          0,     1484,     5936, 0xea261a29
0,          1,          1,        1,   102144, 0xd0534fda
1,       1484,       1484,     1456,     5824, 0x253df061
0,          2,          2,        1,   102144, 0x6447911f
1,       2940,       2940,     1484,     5936, 0x603a5bd7
0,          3,          3,        1,   102144, 0xf21f3b46
1,       4424,       4424,     1456,     5824, 0x9d283f59
0,          4,          4,        1,   102144, 0x0975077a
1,       5880,       5880,     1484,     5936, 0x49323497
0,          5,          5,        1,   102144, 0xb9a12d8e
1,       7364,       7364,     1456,     5824, 0x7c299939
0,          6,          6,        1,   102144, 0x17413513
1,       8820,       8820,     1484,     5936, 0x9f918e9a
0,          7,          7,        1,   102144, 0x1e622a04
1,      10304,      10304,     1456,     5824, 0x1226b534
0,          8,          8,        1,   102144, 0x7489224e
1,      11760,      11760,     1484,     5936, 0xdd159326
0,          9,          9,        1,   102144, 0xae14956e
1,      13244,      13244,     1456,     5824, 0x361ad10f
0,         10,         10,        1,   102144, 0x104fd3a0
1,      14700,      14700,     1484,     5936, 0x6ccac9e3
0,         11,         11,        1,   102144, 0xea63a940
1,      16184,      16184,     1456,     5824, 0x1861efef
0,         12,         12,        1,   102144, 0x0cf81588
1,      17640,      17640,     1484,     5936, 0x5f718eb9
0,         13,         13,        1,   102144, 0xe4a5b2fd
1,      19124,      19124,     1456,     5824, 0xd4ca72ba
0,         14,         14,        1,   102144, 0x0c9aaf77
1,      20580,      20580,     1484,     5936, 0xbf2b27e6
0,         15,         15,        1,   102144, 0x065007d7
1,      22064,      22064,     1456,     5824, 0xcb6f024e
0,         16,         16,        1,   102144, 0x54c0c29b
1,      23520,      23520,     1484,     5936, 0x7dfb7e05
0,         17,         17,        1,   102144, 0x1114cb8e
1,      25004,      25004,     1456,     5824, 0x80e16f13
0,         18,         18,        1,   102144, 0xe4270462
1,      26460,      26460,     1484,     5936, 0x0fb59227
0,         19,         19,        1,   102144, 0x61e5b7fd
1,      27944,      27944,     1456,     5824, 0x4d6f1fdb
0,         20,         20,        1,   102144, 0x7cbeaca6
1,      29400,      29400,     1484,     5936, 0x505a5103
0,         21,         21,        1,   102144, 0xed92daa4
1,      30884,      30884,     1456,     5824, 0x47ef4c13
0,         22,         22,        1,   102144, 0xd8654d0d
1,      32340,      32340,     1484,     5936, 0xbe4795fb
0,         23,         23,        1,   102144, 0x854e842b
1,      33824,      33824,     1456,     5824, 0xb82cc4ff
0,         24,         24,        1,   102144, 0x56407c3a
1,      35280,      35280,     1484,     5936, 0xf7c6ab8d
0,         25,         25,        1,   102144, 0x17db3f90
1,      36764,      36764,     1456,     5824, 0x1442f5e0
0,         26,         26,        1,   102144, 0x8b133b9a
1,      38220,      38220,     1484,     5936, 0x64659389
0,         27,         27,        1,   102144, 0xe4899db9
1,      39704,      39704,     1456,     5824, 0xdd81725c
0,         28,         28,        1,   102144, 0x579cf092
1,      41160,      41160,     1484,     5936, 0x7f7c604f
0,         29,         29,        1,   102144, 0x19fa5062
1,      42644,      42644,     1456,     5824, 0xafc77beb
0,         30,         30,        1,   102144, 0x71339792
1,      44100,      44100,     1484,     5936, 0x24f88e4d
0,         31,         31,        1,   102144, 0x970e5c0c
1,      45584,      45584,     1456,     5824, 0xa31956ca
0,         32,         32,        1,   102144, 0x84ee616a
1,      47040,      47040,     1484,     5936, 0x958e02b9
0,         33,         33,        1,   102144, 0x1d6f9a23
1,      48524,      48524,     1456,     5824, 0xcfc79890
0,         34,         34,        1,   102144, 0xc28e19db
1,      49980,      49980,     1484,     5936, 0xc7e788ae
0,         35,         35,        1,   102144, 0x0e898967
1,      51464,      51464,     1456,     5824, 0x4b6b1acc
0,         36,         36,        1,   102144, 0x52a8b671
1,      52920,      52920,     1484,     5936, 0xa74496dc
0,         37,         37,        1,   102144, 0x3f45ea83
1,      54404,      54404,     1456,     5824, 0x719e6171
0,         38,         38,        1,   102144, 0x7b0fc603
1,      55860,      55860,     1484,     5936, 0x9346222d
0,         39,         39,        1,   102144, 0x14f94469
1,      57344,      57344,     1456,     5824, 0x9e2a876e
0,         40,         40,        1,   102144, 0x5b9f37cc
1,      58800,      58800,     1484,     5936, 0xeca6ea64
0,         41,         41,        1,   102144, 0xf902b7c7
1,      60284,      60284,     1456,     5824, 0x07d8174f
0,         42,         42,        1,   102144, 0x326836e0
1,      61740,      61740,     1484,     5936, 0x2df5aa6b
0,         43,         43,        1,   102144, 0x2e4aebba
1,      63224,      63224,     1456,     5824, 0x314e7034
0,         44,         44,        1,   102144, 0xd10ae58c
1,      64680,      64680,     1484,     5936, 0x5a328768
0,         45,         45,        1,   102144, 0xbd084ecf
1,      66164,      66164,     1456,     5824, 0x32b92446
0,         46,         46,        1,   102144, 0xb2157c0a
1,      67620,      67620,     1484,     5936, 0x20ecbc9b
0,         47,         47,        1,   102144, 0xd7f158d4
1,      69104,      69104,     1456,     5824, 0x76019c14
0,         48,         48,        1,   102144, 0x3cf86462
1,      70560,      70560,     1484,     5936, 0x8c3ef8a6
0,         49,         49,        1,   102144, 0x53ecddab
1,      72044,      72044,     1456,     5824, 0xcdaab50b
0,         50,         50,        1,   102144, 0xcdaba8ef
1,      73500,      73500,     1484,     5936, 0xb2f87f4f
0,         51,         51,        1,   102144, 0xab9ede18
1,      74984,      74984,     1456,     5824, 0x70c26379
0,         52,         52,        1,   102144, 0xb6706e79
1,      76440,      76440,     1484,     5936, 0x5691ecfd
0,         53,         53,        1,   102144, 0x76371069
1,      77924,      77924,     1456,     5824, 0x61e208fe
0,         54,         54,        1,   102144, 0x3a365016
1,      79380,      79380,     1484,     5936, 0x87d1a5e0
0,         55,         55,        1,   102144, 0x52177c09
1,      80864,      80864,     1456,     5824, 0x02054cfd
0,         56,         56,        1,   102144, 0xc33eb4fb
1,      82320,      82320,     1484,     5936, 0x22ff1c4b
0,         57,         57,        1,   102144, 0x16098436
1,      83804,      83804,     1456,     5824, 0xc6d87fef
0,         58,         58,        1,   102144, 0x715d6a2b
1,      85260,      85260,     1484,     5936, 0x9028bb3b
0,         59,         59,        1,   102144, 0xd3abc960
1,      86744,      86744,     1456,     5824, 0xbadde406
0,         60,         60,        1,   102144, 0x7f34b0d4
1,      88200,      88200,     1484,     5936, 0x6e88ddf1
0,         61,         61,        1,   102144, 0xe3219b9c
1,      89684,      89684,     1456,     5824, 0x5bb8be6e
0,         62,         62,        1,   102144, 0x5fa54f54
1,      91140,      91140,     1484,     5936, 0xe1f8d7fc
0,         63,         63,        1,   102144, 0x0fb746cb
1,      92624,      92624,     1456,     5824, 0xc824e388
0,         64,         64,        1,   102144, 0xa6bd2da2
1,      94080,      94080,     1484,     5936, 0x654371a9
0,         65,         65,        1,   102144, 0x04579119
1,      95564,      95564,     1456,     5824, 0xae6ee9ec
0,         66,         66,        1,   102144, 0xda818691
1,      97020,      97020,     1484,     5936, 0x9aa4550d
0,         67,         67,        1,   102144, 0xe9d44445
1,      98504,      98504,     1456,     5824, 0xdce210ac
0,         68,         68,        1,   102144, 0x94868dc9
1,      99960,      99960,     1484,     5936, 0xb12641c8
0,         69,         69,        1,   102144, 0x3ca52ce6
1,     101444,     101444,     1456,     5824, 0x277e014b
0,         70,         70,        1,   102144, 0xd7eb4c4f
1,     102900,     102900,     1484,     5936, 0xb0d262de
0,         71,         71,        1,   102144, 0xfcdfafca
1,     104384,     104384,     1456,     5824, 0xf94d6f49
0,         72,         72,        1,   102144, 0x473a4a5a
1,     105840,     105840,     1484,     5936, 0x3d7848cb
0,         73,         73,        1,   102144, 0xe5a5f3cb
1,     107324,     107324,     1456,     5824, 0xe67fc08e
0,         74,         74,        1,   102144, 0x34070219
1,     108780,     108780,     1484,     5936, 0x0475e0d6
0,         75,         75,        1,   102144, 0x0faa965a
1,     110264,     110264,     1456,     5824, 0x8a9a4a2e
0,         76,         76,        1,   102144, 0xe2c6acda
1,     111720,     111720,     1484,     5936, 0x82576204
0,         77,         77,        1,   102144, 0xe22776d5
1,     113204,     113204,     1456,     5824, 0x3017b648
0,         78,         78,        1,   102144, 0x80d85602
1,     114660,     114660,     1484,     5936, 0xca4c3e04
0,         79,         79,        1,   102144, 0x2f3fa190
1,     116144,     116144,     1456,     5824, 0x340077d1
0,         80,         80,        1,   102144, 0x70b461b1
1,     117600,     117600,     1484,     5936, 0x805bea6e
0,         81,         81,        1,   102144, 0x366c8b27
1,     119084,     119084,     1456,     5824, 0x2cf6c87b
0,         82,         82,        1,   102144, 0x65cc0866
1,     120540,     120540,     1484,     5936, 0x3635bc5f
0,         83,         83,        1,   102144, 0x903beb14
1,     122024,     122024,     1456,     5824, 0x0d7a81c7
0,         84,         84,        1,   102144, 0xb6c5f5c7
1,     123480,     123480,     1484,     5936, 0x26179764
0,         85,         85,        1,   102144, 0xaa813725
1,     124964,     124964,     1456,     5824, 0xa0b2454f
0,         86,         86,        1,   102144, 0x014a84a0
1,     126420,     126420,     1484,     5936, 0x91d24608
0,         87,         87,        1,   102144, 0xd286ece1
1,     127904,     127904,     1456,     5824, 0x6509b3e1
0,         88,         88,        1,   102144, 0x48b1c27d
1,     129360,     129360,     1484,     5936, 0xa0e3c9fc
0,         89,         89,        1,   102144, 0xa611ef42
1,     130844,     130844,     1456,     5824, 0x18682a2f
0,         90,         90,        1,   102144, 0x98627584
1,     132300,     132300,     1484,     5936, 0x89cea4ff
0,         91,         91,        1,   102144, 0x43de7c75
1,     133784,     133784,     1456,     5824, 0x7dd22b85
0,         92,         92,        1,   102144, 0xa9e22c68
1,     135240,     135240,     1484,     5936, 0x8b2eeb8d
0,         93,         93,        1,   102144, 0x84ac34d4
1,     136724,     136724,     1456,     5824, 0x0c21af82
0,         94,         94,        1,   102144, 0x6abd00ba
1,     138180,     138180,     1484,     5936, 0x9c5a748d
0,         95,         95,        1,   102144, 0x5d11066e
1,     139664,     139664,     1456,     5824, 0x1dc72c5c
0,         96,         96,        1,   102144, 0xb6b083aa
1,     141120,     141120,     1484,     5936, 0xe6129383
0,         97,         97,        1,   102144, 0x5d152a11
1,     142604,     142604,     1456,     5824, 0x0a44312a
0,         98,         98,        1,   102144, 0x0c0aec67
1,     144060,     144060,     1484,     5936, 0x7ed30640
0,         99,         99,        1,   102144, 0xa248bd10
1,     145544,     145544,     1456,     5824, 0xede15f25
0,        100,        100,        1,   102144, 0x4e6c12cc
1,     147000,     147000,     1484,     5936, 0x0096d0f3
0,        101,        101,        1,   102144, 0xca1d6753
1,     148484,     148484,     1456,     5824, 0x13764b4b
0,        102,        102,        1,   102144, 0x116310c3
1,     149940,     149940,     1484,     5936, 0xd4608756
0,        103,        103,        1,   102144, 0x16903cd0
1,     151424,     151424,     1456,     5824, 0x254b5f2a
0,        104,        104,        1,   102144, 0x239adfed
1,     152880,     152880,     1484,     5936, 0x7705b830
0,        105,        105,        1,   102144, 0x0970ce49
1,     154364,     154364,     1456,     5824, 0x64a63d78
0,        106,        106,        1,   102144, 0xb628adc1
1,     155820,     155820,     1484,     5936, 0xc02d81a6
0,        107,        107,        1,   102144, 0x473613f7
1,     157304,     157304,     1456,     5824, 0xd239e55e
0,        108,        108,        1,   102144, 0x3eef3987
1,     158760,     158760,     1484,     5936, 0x8018cd3a
0,        109,        109,        1,   102144, 0x935b99ca
1,     160244,     160244,     1456,     5824, 0xf86b8a98
0,        110,        110,        1,   102144, 0xb9f4d6ee
1,     161700,     161700,     1484,     5936, 0x2a0078bc
0,        111,        111,        1,   102144, 0xac811656
1,     163184,     163184,     1456,     5824, 0x058d4e1b
0,        112,        112,        1,   102144, 0xd1f84af0
1,     164640,     164640,     1484,     5936, 0xbc718309
0,        113,        113,        1,   102144, 0xf2fd25f4
1,     166124,     166124,     1456,     5824, 0xaf6c29e5
0,        114,        114,        1,   102144, 0x935bbed9
1,     167580,     167580,     1484,     5936, 0x80df004d
0,        115,        115,        1,   102144, 0x8c8c3e53
1,     169064,     169064,     1456,     5824, 0xeca5aa57
0,        116,        116,        1,   102144, 0x24afc20f
1,     170520,     170520,     1484,     5936, 0xb793a8f8
0,        117,        117,        1,   102144, 0xad20a451
1,     172004,     172004,     1456,     5824, 0x70fa6aff
0,        118,        118,        1,   102144, 0xd1a0df13
1,     173460,     173460,     1484,     5936, 0xda8d4cc6
0,        119,        119,        1,   102144, 0xb0ee53f8
1,     174944,     174944,     1456,     5824, 0xa70088eb
0,        120,        120,        1,   102144, 0x08cdb591
1,     176400,     176400,     1484,     5936, 0x1c0b0aab
0,        121,        121,        1,   102144, 0x89b985b0
1,     177884,     177884,     1456,     5824, 0x234d2436
0,        122,        122,        1,   102144, 0xdd27d51f
1,     179340,     179340,     1484,     5936, 0xf79d731e
0,        123,        123,        1,   102144, 0xa783fce0
1,     180824,     180824,     1456,     5824, 0x5a4e454a
0,        124,        124,        1,   102144, 0xfe5602e8
1,     182280,     182280,     1484,     5936, 0xccf6d042
0,        125,        125,        1,   102144, 0xfb989934
1,     183764,     183764,     1456,     5824, 0x4e524d14
0,        126,        126,        1,   102144, 0xf857eb2b
1,     185220,     185220,     1484,     5936, 0xf8f2fcc3
0,        127,        127,        1,   102144, 0x987a7098
1,     186704,     186704,     1456,     5824, 0x08f12491
0,        128,        128,        1,   102144, 0xbc749f42
1,     188160,     188160,     1484,     5936, 0x506e0a42
0,        129,        129,        1,   102144, 0x221e48a6
1,     189644,     189644,     1456,     5824, 0x7cf05049
0,        130,        130,        1,   102144, 0x4c4b5da2
1,     191100,     191100,     1484,     5936, 0xdeb9d295
0,        131,        131,        1,   102144, 0x32140027
1,     192584,     192584,     1456,     5824, 0x758ef642
0,        132,        132,        1,   102144, 0xbeb4bf18
1,     194040,     194040,     1484,     5936, 0x91903980
0,        133,        133,        1,   102144, 0x523012e5
